<svg width="20" height="20" viewBox="0 0 20 20" fill="none" xmlns="http://www.w3.org/2000/svg">
<path d="M17.241 15.8249L17.241 15.8242L16.4525 5.69575C16.4525 5.6957 16.4525 5.69564 16.4525 5.69559C16.3938 4.91674 15.7475 4.30075 14.9707 4.30075H13.6591C13.5673 2.33087 11.9656 0.75 10.0001 0.75C8.03466 0.75 6.43303 2.33087 6.34124 4.30075H5.02962C4.25307 4.30075 3.60659 4.91642 3.54795 5.69408C3.54794 5.69419 3.54793 5.6943 3.54792 5.69441L2.7592 15.8256L2.75915 15.8262C2.69301 16.7052 2.99181 17.5806 3.58077 18.2288C4.16991 18.8773 5.00562 19.25 5.87505 19.25H14.1252C14.9946 19.25 15.8303 18.8773 16.4195 18.2288L16.2345 18.0607L16.4195 18.2288C17.0085 17.5806 17.3072 16.7052 17.241 15.8249ZM5.07441 5.85508H6.33708V6.90358C6.33708 7.32822 6.67604 7.68075 7.1042 7.68075C7.53237 7.68075 7.87133 7.32822 7.87133 6.90358V5.85508H12.129V6.90358C12.129 7.32822 12.4679 7.68075 12.8961 7.68075C13.3243 7.68075 13.6632 7.32822 13.6632 6.90358V5.85508H14.9259L15.7113 15.9443C15.7114 15.9444 15.7114 15.9445 15.7114 15.9446C15.7459 16.4037 15.5963 16.8397 15.2907 17.1762C14.9851 17.5125 14.5724 17.6957 14.1252 17.6957H5.87508C5.42786 17.6957 5.01521 17.5125 4.70964 17.1762C4.40392 16.8397 4.25451 16.4037 4.28889 15.9461C4.2889 15.946 4.28891 15.9459 4.28892 15.9458L5.07441 5.85508ZM7.87842 4.30075C7.96778 3.18106 8.88951 2.30434 10.0001 2.30434C11.1108 2.30434 12.0325 3.18109 12.1219 4.30075H7.87842Z" fill="#F10027" stroke="#F10027" stroke-width="0.5"/>
<path d="M11.4443 9.99479C11.7706 9.66842 12.2998 9.66839 12.6262 9.99479L11.4443 9.99479ZM11.4443 9.99479V9.99479L11.4443 9.9948L9.00562 12.4335L8.17671 11.6046C8.17671 11.6046 8.1767 11.6046 8.1767 11.6046C7.85034 11.2782 7.32115 11.2782 6.99479 11.6046C6.6684 11.9309 6.6684 12.4601 6.99479 12.7865L8.41467 14.2063C8.57778 14.3695 8.7921 14.4512 9.00559 14.4512C9.21898 14.4512 9.43337 14.3696 9.5965 14.2063C9.59652 14.2063 9.59654 14.2063 9.59656 14.2063L12.6261 11.1767C12.9525 10.8503 12.9525 10.3212 12.6262 9.99482L11.4443 9.99479Z" fill="#F10027" stroke="white" stroke-width="0.5"/>
</svg>
