<svg width="30" height="30" viewBox="0 0 30 30" fill="none" xmlns="http://www.w3.org/2000/svg">
<rect opacity="0.1" width="30" height="30" rx="15" fill="#F10027"/>
<path fill-rule="evenodd" clip-rule="evenodd" d="M7.05884 13.5157C7.05884 9.45696 10.4505 6.17647 14.5531 6.17647C18.6672 6.17647 22.0588 9.45696 22.0588 13.5157C22.0588 15.5609 21.315 17.4596 20.0907 19.0691C18.7401 20.8443 17.0755 22.391 15.2017 23.6051C14.7728 23.8856 14.3858 23.9068 13.9151 23.6051C12.0307 22.391 10.366 20.8443 9.02693 19.0691C7.80176 17.4596 7.05884 15.5609 7.05884 13.5157ZM12.0833 13.7442C12.0833 15.1038 13.1927 16.1732 14.5532 16.1732C15.9144 16.1732 17.0346 15.1038 17.0346 13.7442C17.0346 12.3951 15.9144 11.2737 14.5532 11.2737C13.1927 11.2737 12.0833 12.3951 12.0833 13.7442Z" fill="#F10027"/>
</svg>
